# xmcd
#
# Track frame offsets:
#	150
#	22724
#	36667
#	53819
#	72389
#	98416
#	118453
#	138220
#	159981
#	177669
#	193057
#	214080
#	230368
#
# Disc length: 3301 seconds
#
# Revision: 6
# Processed by: cddbd v1.5.2PL0 Copyright (c) Steve Scherf et al.
# Submitted via: EasyCDDAExtractor 15.2.5.1
#
DISCID=b60ce30d
DTITLE=黄江琴 - 第一元素 VIII
DYEAR=2006
DGENRE=Musical
TTITLE0=The sound of silence
TTITLE1=Speak softly, love
TTITLE2=Schindler's list
TTITLE3=Somewhere my love
TTITLE4=The theme of movie "Evita"
TTITLE5=Yesterday once more
TTITLE6=Edelweiss
TTITLE7=Right here waiting
TTITLE8=A time for us
TTITLE9=Auld Lang Syne 
TTITLE10=My heart will go on
TTITLE11=Moon River
TTITLE12=Unchaned melody
EXTD=YEAR: 2006
EXTT0=
EXTT1=
EXTT2=
EXTT3=
EXTT4=
EXTT5=
EXTT6=
EXTT7=
EXTT8=
EXTT9=
EXTT10=
EXTT11=
EXTT12=
PLAYORDER=
